<svg width="32" height="32" viewBox="0 0 32 32" fill="none" xmlns="http://www.w3.org/2000/svg">
<g filter="url(#filter0_d)">
<path d="M28 12C28 18.6273 22.6273 24 16 24C9.37333 24 4 18.6273 4 12C4 5.37333 9.37333 0 16 0C22.6273 0 28 5.37333 28 12Z" fill="#FFCC4D"/>
<path d="M11.6667 13.3337C12.5871 13.3337 13.3333 12.289 13.3333 11.0003C13.3333 9.71166 12.5871 8.66699 11.6667 8.66699C10.7462 8.66699 10 9.71166 10 11.0003C10 12.289 10.7462 13.3337 11.6667 13.3337Z" fill="#664500"/>
<path d="M20.3332 13.3337C21.2536 13.3337 21.9998 12.289 21.9998 11.0003C21.9998 9.71166 21.2536 8.66699 20.3332 8.66699C19.4127 8.66699 18.6665 9.71166 18.6665 11.0003C18.6665 12.289 19.4127 13.3337 20.3332 13.3337Z" fill="#664500"/>
<path d="M20.6665 17.3333H11.3332C10.9652 17.3333 10.6665 17.0353 10.6665 16.6667C10.6665 16.298 10.9652 16 11.3332 16H20.6665C21.0352 16 21.3332 16.298 21.3332 16.6667C21.3332 17.0353 21.0352 17.3333 20.6665 17.3333Z" fill="#664500"/>
</g>
<defs>
<filter id="filter0_d" x="0" y="0" width="32" height="32" filterUnits="userSpaceOnUse" color-interpolation-filters="sRGB">
<feFlood flood-opacity="0" result="BackgroundImageFix"/>
<feColorMatrix in="SourceAlpha" type="matrix" values="0 0 0 0 0 0 0 0 0 0 0 0 0 0 0 0 0 0 127 0" result="hardAlpha"/>
<feOffset dy="4"/>
<feGaussianBlur stdDeviation="2"/>
<feComposite in2="hardAlpha" operator="out"/>
<feColorMatrix type="matrix" values="0 0 0 0 0 0 0 0 0 0 0 0 0 0 0 0 0 0 0.25 0"/>
<feBlend mode="normal" in2="BackgroundImageFix" result="effect1_dropShadow"/>
<feBlend mode="normal" in="SourceGraphic" in2="effect1_dropShadow" result="shape"/>
</filter>
</defs>
</svg>
