<svg width="24" height="24" viewBox="0 0 24 24" fill="none" xmlns="http://www.w3.org/2000/svg">
<path d="M12 0.000488281C5.3832 0.000488281 0 5.38347 0 11.9998C0 18.6163 5.3832 23.9993 12 23.9993C18.6168 23.9993 24 18.6163 24 11.9998C24 5.38347 18.6168 0.000488281 12 0.000488281ZM12 21.8175C6.58625 21.8175 2.18182 17.4134 2.18182 11.9999C2.18182 6.58645 6.58625 2.18231 12 2.18231C17.4137 2.18231 21.8182 6.58645 21.8182 11.9998C21.8182 17.4134 17.4137 21.8175 12 21.8175Z" fill="url(#paint0_linear)"/>
<path d="M12.0001 9.45508C11.3976 9.45508 10.9092 9.94351 10.9092 10.546V17.8175C10.9092 18.4199 11.3976 18.9084 12.0001 18.9084C12.6026 18.9084 13.091 18.4199 13.091 17.8175V10.546C13.091 9.94359 12.6026 9.45508 12.0001 9.45508Z" fill="url(#paint1_linear)"/>
<path d="M12.0001 5.0918C11.7128 5.0918 11.432 5.20816 11.2285 5.41107C11.0255 5.61398 10.9092 5.89543 10.9092 6.18271C10.9092 6.46998 11.0255 6.75071 11.2285 6.95434C11.4314 7.15725 11.7128 7.27361 12.0001 7.27361C12.2874 7.27361 12.5681 7.15725 12.7717 6.95434C12.9746 6.75071 13.091 6.46998 13.091 6.18271C13.091 5.89543 12.9746 5.61398 12.7717 5.41107C12.5681 5.20809 12.2874 5.0918 12.0001 5.0918Z" fill="url(#paint2_linear)"/>
<defs>
<linearGradient id="paint0_linear" x1="-1.9907e-08" y1="0.187553" x2="24.6553" y2="0.880837" gradientUnits="userSpaceOnUse">
<stop stop-color="#FC5A44"/>
<stop offset="1" stop-color="#C41432"/>
</linearGradient>
<linearGradient id="paint1_linear" x1="10.9092" y1="9.52876" x2="13.1523" y2="9.54332" gradientUnits="userSpaceOnUse">
<stop stop-color="#FC5A44"/>
<stop offset="1" stop-color="#C41432"/>
</linearGradient>
<linearGradient id="paint2_linear" x1="10.9092" y1="5.1088" x2="13.1506" y2="5.17183" gradientUnits="userSpaceOnUse">
<stop stop-color="#FC5A44"/>
<stop offset="1" stop-color="#C41432"/>
</linearGradient>
</defs>
</svg>
