<svg width="40" height="40" viewBox="0 0 40 40" fill="none" xmlns="http://www.w3.org/2000/svg">
<rect width="40" height="40" rx="8" fill="url(#paint0_linear)"/>
<g clip-path="url(#clip0)">
<path d="M30.0569 14.1796C30.0446 13.5316 30.0328 12.9195 30.0328 12.3273C30.0328 11.8633 29.6568 11.4872 29.1928 11.4872C25.6001 11.4872 22.8648 10.4547 20.5847 8.23786C20.2586 7.92066 19.7395 7.92077 19.4135 8.23786C17.1336 10.4547 14.3987 11.4872 10.8063 11.4872C10.3424 11.4872 9.96624 11.8633 9.96624 12.3273C9.96624 12.9196 9.95459 13.5319 9.94215 14.18C9.82701 20.2101 9.6693 28.4686 19.7239 31.9537C19.8131 31.9846 19.9061 32.0001 19.999 32.0001C20.092 32.0001 20.1851 31.9846 20.2741 31.9537C30.3296 28.4685 30.1721 20.2098 30.0569 14.1796ZM19.9991 30.2685C11.376 27.136 11.5063 20.2738 11.6221 14.212C11.629 13.8482 11.6357 13.4956 11.6404 13.15C15.0051 13.008 17.6958 11.9883 19.9991 9.98183C22.3027 11.9883 24.9938 13.0081 28.3588 13.15C28.3635 13.4955 28.3702 13.8479 28.3771 14.2115C28.4927 20.2735 28.623 27.1359 19.9991 30.2685Z" fill="url(#paint1_linear)"/>
<path d="M22.8919 17.0819L18.8373 21.1363L17.1071 19.4061C16.779 19.0781 16.2471 19.0781 15.9191 19.4061C15.5911 19.7343 15.5911 20.2661 15.9191 20.5942L18.2433 22.9184C18.4073 23.0823 18.6224 23.1643 18.8373 23.1643C19.0522 23.1643 19.2673 23.0823 19.4313 22.9184L24.0797 18.27C24.4079 17.9419 24.4079 17.41 24.0798 17.082C23.7519 16.754 23.22 16.7539 22.8919 17.0819Z" fill="url(#paint2_linear)"/>
</g>
<defs>
<linearGradient id="paint0_linear" x1="40" y1="40" x2="0" y2="0" gradientUnits="userSpaceOnUse">
<stop stop-color="#FFC8C8"/>
<stop offset="1" stop-color="#FFF6F6"/>
</linearGradient>
<linearGradient id="paint1_linear" x1="9.91626" y1="8.18708" x2="30.6383" y2="8.67666" gradientUnits="userSpaceOnUse">
<stop stop-color="#FC5A44"/>
<stop offset="1" stop-color="#C41432"/>
</linearGradient>
<linearGradient id="paint2_linear" x1="15.6731" y1="16.8853" x2="24.556" y2="17.2268" gradientUnits="userSpaceOnUse">
<stop stop-color="#FC5A44"/>
<stop offset="1" stop-color="#C41432"/>
</linearGradient>
<clipPath id="clip0">
<rect width="24" height="24" fill="white" transform="translate(8 8)"/>
</clipPath>
</defs>
</svg>
