<svg width="22" height="24" viewBox="0 0 22 24" fill="none" xmlns="http://www.w3.org/2000/svg">
<path d="M20.2812 0H1.71875C1.20097 0 0.78125 0.419719 0.78125 0.9375V19.5C0.78125 20.0178 1.20097 20.4375 1.71875 20.4375H7.04919L10.3371 23.7254C10.7032 24.0915 11.2968 24.0915 11.6629 23.7254L14.9508 20.4375H20.2812C20.799 20.4375 21.2188 20.0178 21.2188 19.5V0.9375C21.2188 0.419719 20.799 0 20.2812 0ZM19.3438 18.5625H14.5625C14.3139 18.5625 14.0754 18.6613 13.8996 18.8371L11 21.7367L8.10041 18.8371C7.92462 18.6613 7.68612 18.5625 7.4375 18.5625H2.65625V1.875H19.3438V18.5625ZM11.9236 9.34252V13.8537C11.9236 14.1379 11.5092 14.422 11 14.422C10.4672 14.422 10.0883 14.1379 10.0883 13.8537V9.34252C10.0883 9.01097 10.4672 8.78602 11 8.78602C11.5092 8.78602 11.9236 9.01097 11.9236 9.34252ZM10.0292 6.84417C10.0292 6.39422 10.4554 6.00352 11 6.00352C11.5329 6.00352 11.9591 6.39422 11.9591 6.84417C11.9591 7.29413 11.5329 7.69669 11 7.69669C10.4554 7.69669 10.0292 7.29413 10.0292 6.84417Z" fill="url(#paint0_linear)"/>
<defs>
<linearGradient id="paint0_linear" x1="0.78125" y1="0.187074" x2="21.7814" y2="0.689898" gradientUnits="userSpaceOnUse">
<stop stop-color="#FC5A44"/>
<stop offset="1" stop-color="#C41432"/>
</linearGradient>
</defs>
</svg>
