<svg width="32" height="32" viewBox="0 0 32 32" fill="none" xmlns="http://www.w3.org/2000/svg">
<g filter="url(#filter0_d)">
<path d="M28 12C28 18.6273 22.6273 24 16 24C9.37333 24 4 18.6273 4 12C4 5.37333 9.37333 0 16 0C22.6273 0 28 5.37333 28 12Z" fill="#FFCC4D"/>
<path d="M11.6667 11.9997C12.5871 11.9997 13.3333 10.955 13.3333 9.66634C13.3333 8.37768 12.5871 7.33301 11.6667 7.33301C10.7462 7.33301 10 8.37768 10 9.66634C10 10.955 10.7462 11.9997 11.6667 11.9997Z" fill="#664500"/>
<path d="M20.3332 11.9997C21.2536 11.9997 21.9998 10.955 21.9998 9.66634C21.9998 8.37768 21.2536 7.33301 20.3332 7.33301C19.4127 7.33301 18.6665 8.37768 18.6665 9.66634C18.6665 10.955 19.4127 11.9997 20.3332 11.9997Z" fill="#664500"/>
<path d="M9.77674 18.581C9.89541 18.6883 10.0727 18.695 10.2001 18.6003C10.2261 18.581 12.8147 16.667 16.0001 16.667C19.1774 16.667 21.7747 18.581 21.8001 18.6003C21.9274 18.695 22.1047 18.687 22.2234 18.581C22.3414 18.4743 22.3681 18.2983 22.2861 18.1623C22.2001 18.0197 20.1414 14.667 16.0001 14.667C11.8587 14.667 9.79941 18.019 9.71407 18.1623C9.63207 18.299 9.65807 18.4743 9.77674 18.581Z" fill="#664500"/>
</g>
<defs>
<filter id="filter0_d" x="0" y="0" width="32" height="32" filterUnits="userSpaceOnUse" color-interpolation-filters="sRGB">
<feFlood flood-opacity="0" result="BackgroundImageFix"/>
<feColorMatrix in="SourceAlpha" type="matrix" values="0 0 0 0 0 0 0 0 0 0 0 0 0 0 0 0 0 0 127 0" result="hardAlpha"/>
<feOffset dy="4"/>
<feGaussianBlur stdDeviation="2"/>
<feComposite in2="hardAlpha" operator="out"/>
<feColorMatrix type="matrix" values="0 0 0 0 0 0 0 0 0 0 0 0 0 0 0 0 0 0 0.25 0"/>
<feBlend mode="normal" in2="BackgroundImageFix" result="effect1_dropShadow"/>
<feBlend mode="normal" in="SourceGraphic" in2="effect1_dropShadow" result="shape"/>
</filter>
</defs>
</svg>
