<svg width="32" height="32" viewBox="0 0 32 32" fill="none" xmlns="http://www.w3.org/2000/svg">
<g filter="url(#filter0_d)">
<path d="M16 24C22.6274 24 28 18.6274 28 12C28 5.37258 22.6274 0 16 0C9.37258 0 4 5.37258 4 12C4 18.6274 9.37258 24 16 24Z" fill="#FFCC4D"/>
<path d="M15.9998 14.0001C13.5845 14.0001 11.9818 13.7188 9.99984 13.3335C9.54717 13.2461 8.6665 13.3335 8.6665 14.6668C8.6665 17.3335 11.7298 20.6668 15.9998 20.6668C20.2692 20.6668 23.3332 17.3335 23.3332 14.6668C23.3332 13.3335 22.4525 13.2455 21.9998 13.3335C20.0178 13.7188 18.4152 14.0001 15.9998 14.0001Z" fill="#664500"/>
<path d="M10 14.6667C10 14.6667 12 15.3334 16 15.3334C20 15.3334 22 14.6667 22 14.6667C22 14.6667 20.6667 17.3334 16 17.3334C11.3333 17.3334 10 14.6667 10 14.6667Z" fill="white"/>
<path d="M12.0002 11.3334C12.9206 11.3334 13.6668 10.2887 13.6668 9.00008C13.6668 7.71142 12.9206 6.66675 12.0002 6.66675C11.0797 6.66675 10.3335 7.71142 10.3335 9.00008C10.3335 10.2887 11.0797 11.3334 12.0002 11.3334Z" fill="#664500"/>
<path d="M20.0002 11.3334C20.9206 11.3334 21.6668 10.2887 21.6668 9.00008C21.6668 7.71142 20.9206 6.66675 20.0002 6.66675C19.0797 6.66675 18.3335 7.71142 18.3335 9.00008C18.3335 10.2887 19.0797 11.3334 20.0002 11.3334Z" fill="#664500"/>
</g>
<defs>
<filter id="filter0_d" x="0" y="0" width="32" height="32" filterUnits="userSpaceOnUse" color-interpolation-filters="sRGB">
<feFlood flood-opacity="0" result="BackgroundImageFix"/>
<feColorMatrix in="SourceAlpha" type="matrix" values="0 0 0 0 0 0 0 0 0 0 0 0 0 0 0 0 0 0 127 0" result="hardAlpha"/>
<feOffset dy="4"/>
<feGaussianBlur stdDeviation="2"/>
<feComposite in2="hardAlpha" operator="out"/>
<feColorMatrix type="matrix" values="0 0 0 0 0 0 0 0 0 0 0 0 0 0 0 0 0 0 0.25 0"/>
<feBlend mode="normal" in2="BackgroundImageFix" result="effect1_dropShadow"/>
<feBlend mode="normal" in="SourceGraphic" in2="effect1_dropShadow" result="shape"/>
</filter>
</defs>
</svg>
